<?xml version="1.0" encoding="utf-8"?>
<!-- Generator: Adobe Illustrator 21.0.2, SVG Export Plug-In . SVG Version: 6.00 Build 0)  -->
<svg version="1.0" id="Layer_1" xmlns="http://www.w3.org/2000/svg" xmlns:xlink="http://www.w3.org/1999/xlink" x="0px" y="0px"
	 viewBox="0 0 75 83" style="enable-background:new 0 0 75 83;" xml:space="preserve">
<style type="text/css">
	.st0{fill:#FFFFFF;}
	.st1{fill:#CB2027;}
	.st2{fill:#F1F2F2;}
</style>
<rect class="st0" width="75" height="83"/>
<g>
	<circle class="st1" cx="37.5" cy="39.8" r="30.4"/>
	<g>
		<path class="st2" d="M40,50.1c-2.3-0.2-3.3-1.3-5.1-2.4c-1,5.2-2.2,10.2-5.8,12.8c-1.1-7.9,1.6-13.8,2.9-20
			c-2.2-3.6,0.3-11,4.8-9.2c5.6,2.2-4.9,13.5,2.2,15c7.3,1.5,10.3-12.7,5.8-17.4c-6.6-6.7-19.2-0.2-17.6,9.4c0.4,2.3,2.8,3,1,6.3
			c-4.2-0.9-5.5-4.3-5.3-8.7c0.3-7.2,6.5-12.3,12.8-13C43.5,22,51,25.8,52,33.2C53.2,41.6,48.4,50.8,40,50.1L40,50.1z"/>
	</g>
</g>
</svg>
