<?xml version="1.0" encoding="utf-8"?>
<!-- Generator: Adobe Illustrator 21.0.2, SVG Export Plug-In . SVG Version: 6.00 Build 0)  -->
<svg version="1.0" id="Layer_1" xmlns="http://www.w3.org/2000/svg" xmlns:xlink="http://www.w3.org/1999/xlink" x="0px" y="0px"
	 viewBox="0 0 75 83.8" style="enable-background:new 0 0 75 83.8;" xml:space="preserve">
<style type="text/css">
	.st0{fill:#FFFFFF;}
	.st1{fill:#485B91;}
</style>
<rect class="st0" width="75" height="83.8"/>
<g>
	<g>
		<path class="st1" d="M37.5,9C21,9,7.5,22.5,7.5,39c0,16.5,13.5,30,30,30c16.5,0,30-13.5,30-30C67.5,22.5,54,9,37.5,9z M45,40.1
			h-4.9c0,7.8,0,17.4,0,17.4h-7.2c0,0,0-9.5,0-17.4h-3.4v-6.1h3.4v-4c0-2.8,1.4-7.3,7.3-7.3l5.4,0v6c0,0-3.3,0-3.9,0
			c-0.6,0-1.5,0.3-1.5,1.7v3.6h5.5L45,40.1z"/>
	</g>
</g>
</svg>
