<?xml version="1.0" encoding="utf-8"?>
<!-- Generator: Adobe Illustrator 21.0.2, SVG Export Plug-In . SVG Version: 6.00 Build 0)  -->
<svg version="1.1" id="Layer_1" xmlns="http://www.w3.org/2000/svg" xmlns:xlink="http://www.w3.org/1999/xlink" x="0px" y="0px"
	 viewBox="0 0 158.8 87.2" style="enable-background:new 0 0 158.8 87.2;" xml:space="preserve">
<style type="text/css">
	.st0{fill:#CCE5B5;}
	.st1{fill:#FC8E4D;}
	.st2{font-family:'Comfortaa-Bold';}
	.st3{font-size:18px;}
	.st4{fill:#A3B78D;}
</style>
<g>
	<g>
		<path class="st0" d="M19.5,50.2l-3.7,1.3l-6.1-3.7l-3.5-2.7l-1.5-2.9l1-2.8l-2-3.7c0,0-2.7-7.8,1-9.5L5,22.7c0,0,2.1-7.8,6.2-4.5
			l3-3l2.7,0.7l1.4,1.8l1.2-2.9l2.8-4.6c0,0,5-1.5,4.8,0s3-3,3-3h3.4c0,0,4,2,3.5,3.8l2.8-2l4.8,0.9l1.4,4.8c0,0,3,1.1,3.2,4.4
			s2.3,3.7,2.3,3.7v3.4l2.4,6.1l1.2,2.9l-2,3l0.2,2.6c0,0-0.8,3.4-2.8,3.7c0,0-1.3,7.2-6.7,1.8l-1.3,0.2c0,0-4,13.7-0.8,24.5
			c0,0-2.8,8-9.8,1.5c0,0-4-21.8-10.1-23.9L19.5,50.2z"/>
		<g>
			<path d="M19.5,15.8c-0.7-2.2,0.4-3.9,1.7-5.5c0.7-0.8,1.7-1.2,2.7-1.2c1,0,2,0.2,3.2,0.3c0.6-0.5,1.3-1,2-1.6
				c1.3-1,2.9-1.4,4.5-1.3c1.8,0,2.8,1.2,3.5,2.9l2.7-0.4c3.8-0.5,5,0.2,6.4,3.8c0.1,0.3,0.2,0.6,0.4,1.1c2.3,0.4,3.8,2.6,3.4,4.8
				c0,0,0,0.1,0,0.1c-0.2,1.7,1.5,2.5,1.5,4c0,1.5-0.3,2.7,1,3.7c0.1,0.1,0.2,0.2,0.2,0.3c0.2,1.2,0.5,2.4,0.9,3.6
				c0.5,1.1,1.5,2,2.1,3c0.6,1.1,0.4,2.5-0.4,3.5c-0.6,0.8-0.9,1.8-0.8,2.8c0.2,1.7-0.6,3.4-2.1,4.4c-0.7,0.4-1.1,1.1-1.3,1.9
				c-0.6,2-2.3,2.6-4.1,3c-1.4,0.3-2.2-0.9-3.5-1.5c-3.1,7.8-3.2,16.4-0.3,24.3c-0.5,0.5-1.1,1-1.7,1.5c-2.3,2.5-6.1,2.9-8.9,1.1
				c-1.2-0.5-2-1.6-2-2.9c-0.2-3.8-1-7.6-2.6-11.1c-1.6-4.1-3.7-8-6.3-11.5c-1-1.4-2-2.7-3-4.1c-0.3-0.4-0.4-0.8-0.5-1.2
				c0-0.2,0.3-0.6,0.5-0.8c0.2-0.2,0.4,0,0.6,0c0.1,0,0.2,0.1,0.3,0.2c1.8,3.2,4.6,5.8,6.1,9.3c1,2.3,2.4,4.3,3.7,6.6
				c0.6-0.1,1.1-0.1,1.6-0.3c0.6-0.2,1.2,0,1.5,0.6l-1.8,1.6c0.1,1.3,1.4,0.6,1.9,1.5L31.6,63c-0.9,0.9-0.8,1.6,0.3,1.9
				c0.3,0.1,0.7,0,1,0.1c0.3,0.1,0.3,0.3,0.5,0.4c-2,2.6-1.9,1.3-0.8,5.1l7-1.8c0.1-0.6,0.1-1.3,0-2c-1.6-5.1-0.4-10.1,0.4-15
				c0.5-2.2,1.1-4.4,1.8-6.5c0.2-0.6,0.4-1.1,0.8-1.5c0.1-0.2,0.6-0.2,0.9-0.1c0.2,0.1,0.4,0.3,0.4,0.5c0,0.6,0,1.1,0,1.7
				c0.7,1.3,2.3,1.9,3.7,1.5c1.7-0.5,1.5-2,1.5-3.2c3.2-1.7,4.5-2.5,2.4-6.1c0.5-0.4,1-0.8,1.5-1.2c1.2-0.9,1.4-2.5,0.6-3.6
				c-0.2-0.3-0.4-0.5-0.7-0.7c-0.4-0.3-0.9-0.6-1.3-0.9c0.1-1,0.1-2.1,0-3.1c-0.3-1.3-1.1-1.8-2.5-1.6c-0.9,0.1-1.8,0-2.7,0.1
				c-1,0.3-2.1,0.6-3.1,0.9c0.6-0.8,0.7-1.3,1-1.5c1.1-0.5,2.3-1,3.4-1.3c0.8-0.2,1.5-0.4,1.8-1.3c0.3-0.9-0.2-1.9-1.1-2.2
				c-0.2-0.2-0.4-0.4-0.6-0.6c0.2-0.7,0.3-1.4,0.4-2.2c0.1-2-0.4-2.7-2.4-3.3c-0.2-0.1-0.4-0.2-0.6-0.3c-0.2-0.1-0.4-0.3-0.5-0.5
				c-0.1-0.8-0.2-1.6-0.4-2.3c-0.2-1.6-1.8-2.8-3.4-2.5c-0.2,0-0.3,0.1-0.4,0.1c-0.6,0.2-1.2,0.5-1.8,0.8c-0.7,0.3-1.4,0.7-2,1
				c-1.3-0.4-1-1.5-1.4-2.3c-0.3-1.3-1.5-2.2-2.9-2c-0.2,0-0.4,0.1-0.7,0.2c-1.1,0.4-2,1.1-2.6,2.1c-0.4,0.7-0.8,1.3-1.3,2.2
				c-0.7-0.5-1.4-0.9-2-1.3c-1.7-1.1-2.9-0.8-3.9,1c-0.4,0.8-0.8,1.6-1,2.5c-0.3,0.6-0.8,1.1-1.5,1.3L19.5,15.8z M33.9,72.9
				c1,0.9,2.3,1.3,3.6,1c1.3-0.1,2.3-1,2.6-2.3C37.8,70.3,36.4,70.6,33.9,72.9z"/>
			<path d="M19.4,15.8c0.7,0.4,1.5,0.5,2.3,0.3c1.9-0.4,3.7,0.7,4.3,2.5c0.4,1.2,1.2,2.2,2.2,2.8c1.5,1.1,2.1,3.1,1.5,4.9
				c-0.1,0.6-0.7,0.8-1.5,0.5l-0.6-3.9l-2.4-0.7c-0.1-0.3-0.3-0.6-0.4-0.9c-0.1-0.3,0-0.7-0.1-1c-0.7-2.8-1.6-3.2-4.4-2.1
				c-0.3,0.1-0.6,0.2-1.1,0.4l-1.1-1.1c-0.8-1.3-2.5-1.6-3.7-0.8c-0.2,0.1-0.4,0.3-0.6,0.5c-0.3,0.3-0.5,0.7-0.8,1.1
				c-0.3,0.4-0.5,0.7-0.8,1c-0.4,0-0.7-0.1-1.1-0.2c-1.9-0.9-2.6-0.9-3.7,0.6c-1.2,1.3-1.7,3-1.4,4.8c0.1,0.7,0.3,1.3,0.5,1.9
				c-0.2,0.2-0.3,0.5-0.5,0.6c-0.7,0.4-1.6,0.6-2,1.1c-0.4,0.7-0.5,1.5-0.4,2.3c0.4,3.2,1,6.3,4.1,8.1c0.2,0.1,0.3,0.3,0.4,0.5
				c0.1,0.1,0.1,0.3,0.1,0.4c-0.2,0.2-0.4,0.4-0.7,0.6c-1.7,1.3-1.9,1.9-1.1,3.6c0.7,1.7,2.1,3,3.7,3.8c1.7,0.8,3.7,1.1,5.2,2.4
				c0.4,0.4,1.5,0.1,2.3,0c0.8-0.1,1.5-1,2.5-0.5c0.2,0.4,0.1,0.8-0.3,1.1c0,0-0.1,0-0.2,0.1c-1,0.5-2.1,0.9-3.1,1.2
				c-0.9,0.3-1.9,0.1-2.5-0.6c-1.1-0.9-2.4-1.6-3.8-2.1c-1.1-0.5-2.2-1.1-3.1-2c-2.1-2.2-3.9-4.6-2-7.8c-0.5-0.9-0.9-1.7-1.3-2.4
				c-0.9-1.8-1.5-3.8-1.7-5.8c-0.3-2.2,0-4.1,2.1-5.2c0-1,0-1.9,0.1-2.8c0.2-3.2,2.8-5.8,6-6c1-0.1,2-0.4,2.8-1
				c2-1.5,4.6-1.5,6.6-0.1L19.4,15.8z"/>
			<path d="M40.5,39.7c0.1,0.6,0.3,1,0.2,1.2c-1.6,4.1-2.8,8.3-3.6,12.7c0,0.2-0.1,0.4-0.2,0.6c-0.2,0.2-0.5,0.4-0.8,0.5
				c-0.3,0-0.6-0.2-0.7-0.5c-0.2-0.5-0.4-1-0.4-1.5c-0.3-1.9-0.5-3.8-0.7-5.7c-0.6-4.1-0.7-8.3-0.4-12.5c0-0.6,0.2-1.2,0.4-1.7
				c0.1-0.2,0.5-0.3,0.8-0.4c0.2,0,0.4,0.2,0.5,0.4c0.1,0.6,0.1,1.1,0.1,1.7c0,1.2-0.1,2.5,0,3.7c-0.1,1.1,0.8,2.1,1.9,2.2
				c0.2,0,0.4,0,0.6-0.1C38.9,40.2,39.7,40,40.5,39.7z M36.8,46.8c0.2-1.1,0.5-2.1,0.7-3.2s-0.4-1.2-1.8-1.5
				C35.1,43.7,35.6,45.5,36.8,46.8z"/>
			<path d="M27.1,37.7l0.5-3c0.8-0.4,1.3-0.2,1.5,0.4c0.1,0.3,0.1,0.7,0.1,1c0.5,2.9,0.9,5.8,1.5,8.6c0.4,1.6,0.7,3.2,0.9,4.8
				c-0.8,0.8-1.4,0.7-1.9,0.2c-0.3-0.3-0.6-0.7-0.8-1.1c-2.1-3.6-4.5-7-7.2-10.2c-0.3-0.4-0.6-0.9-0.8-1.3c0.4-0.8,0.9-0.8,1.5-0.4
				C23.7,37.9,25.5,38.3,27.1,37.7z M27.5,43.1l0.6-0.2c0.1-1.2-0.2-2.5-1-3.4l-1.8,0.8L27.5,43.1z"/>
		</g>
		<path class="st1" d="M89.3,19.9c0,0,9,5.7,4.9,15.7s-26,30.2-50.8,38.9L19.5,85c0,0-4.3,0.8-3.1-5c1.2-5.9,32.7-44.9,39.8-50.7
			l7.1-7.6C63.3,21.7,80.6,10.8,89.3,19.9z"/>
		<path d="M110,17.1l-13.9,8c-0.6-1.9-1.3-3.4-2-4.4l19.3-16c0.6-0.5,0.7-1.4,0.2-2.1c-0.5-0.6-1.4-0.7-2.1-0.2l-19.5,16
			c-0.8-0.8-2.1-1.8-3.9-2.8L98.6,3.5c0.5-0.7,0.4-1.6-0.1-2.1c-0.7-0.5-1.6-0.4-2.1,0.1l-11.1,13c-0.9-0.2-1.8-0.5-2.8-0.6
			c-7-0.8-14.6,2.1-23,8.6c0,0-0.1,0-0.2,0.1c0,0,0,0,0,0.1c-0.5,0.4-0.8,0.7-1.3,1.1C41.8,37.4,23.9,64.1,14.6,78.6
			c-1.2,1.7-1.1,4.1,0.4,5.7c0.9,1.1,2.1,1.7,3.4,1.8c0.7,0.1,1.5,0,2.3-0.4c16.2-6.3,45.5-19,61.7-32.6
			c8.9-7.4,13.7-14.9,14.2-22.2c0.1-1,0-1.9,0-2.8l14.9-8.5c0.8-0.4,1-1.3,0.5-2.1C111.5,17,110.7,16.7,110,17.1z M80.5,50.9
			c-9.4,7.8-23.3,15.3-36.4,21.5l-5.7-6.8c-0.5-0.6-1.4-0.7-2.1-0.2c-0.6,0.5-0.7,1.4-0.2,2.1l5.2,6.3c-4.3,2-8.5,3.8-12.4,5.4
			c-3.5,1.5-6.7,2.8-9.4,3.9c-1.1,0.3-1.8,0-2.3-0.7C16.9,82,16.5,81,17.1,80c6.5-10.3,17.5-26.8,29-40.1l5.7,6.8
			c0.3,0.3,0.7,0.5,1,0.5s0.8-0.1,1.1-0.3c0.6-0.5,0.7-1.4,0.2-2.1l-5.9-7.1c3.9-4.4,7.8-8.4,11.7-11.5l0.2-0.1l10.4,12.5
			c0.3,0.3,0.7,0.5,1,0.5s0.8-0.1,1.1-0.3c0.6-0.5,0.7-1.4,0.2-2.1L62.5,24.1c7.1-5.3,13.4-7.7,19.2-7.2c0.1,0,0.3,0,0.4,0
			c5.8,0.7,8.6,4.4,8.7,4.4l0.1,0.2c0.1,0.2,3.3,3.6,2.7,9.4C93.2,37.4,88.8,44,80.5,50.9z"/>
	</g>
	<text transform="matrix(1 0 0 1 95.9756 54.5384)" class="st1 st2 st3">Healty</text>
	<text transform="matrix(1 0 0 1 70.9756 76.5384)" class="st4 st2 st3">Garden</text>
</g>
</svg>
