<?xml version="1.0" encoding="utf-8"?>
<!-- Generator: Adobe Illustrator 21.0.2, SVG Export Plug-In . SVG Version: 6.00 Build 0)  -->
<svg version="1.1" id="Layer_1" xmlns="http://www.w3.org/2000/svg" xmlns:xlink="http://www.w3.org/1999/xlink" x="0px" y="0px"
	 viewBox="0 0 77 77" style="enable-background:new 0 0 77 77;" xml:space="preserve">
<style type="text/css">
	.st0{fill:#339999;}
</style>
<g>
	<path class="st0" d="M38.5,1.5c-20.4,0-37,16.6-37,37s16.6,37,37,37s37-16.6,37-37S58.9,1.5,38.5,1.5 M38.5,72.9
		c-18.9,0-34.4-15.4-34.4-34.4S19.6,4.1,38.5,4.1s34.4,15.4,34.4,34.4S57.4,72.9,38.5,72.9z"/>
	<path class="st0" d="M30,21.3h-8.7c-0.7,0-1.3,0.6-1.3,1.3c0,0.7,0.6,1.3,1.3,1.3h34.4c0.7,0,1.3-0.6,1.3-1.3
		c0-0.7-0.6-1.3-1.3-1.3H30"/>
	<path class="st0" d="M61,42.5H16c-0.7,0-1.3,0.6-1.3,1.3c0,0.7,0.6,1.3,1.3,1.3H61c0.7,0,1.3-0.6,1.3-1.3
		C62.3,43.1,61.7,42.5,61,42.5z"/>
	<path class="st0" d="M61,31.9H16c-0.7,0-1.3,0.6-1.3,1.3c0,0.7,0.6,1.3,1.3,1.3H61c0.7,0,1.3-0.6,1.3-1.3
		C62.3,32.5,61.7,31.9,61,31.9z"/>
	<path class="st0" d="M55.7,53H21.3c-0.7,0-1.3,0.6-1.3,1.3s0.6,1.3,1.3,1.3h34.4c0.7,0,1.3-0.6,1.3-1.3S56.4,53,55.7,53z"/>
</g>
</svg>
