<?xml version="1.0" encoding="utf-8"?>
<!-- Generator: Adobe Illustrator 21.0.2, SVG Export Plug-In . SVG Version: 6.00 Build 0)  -->
<svg version="1.0" id="Layer_1" xmlns="http://www.w3.org/2000/svg" xmlns:xlink="http://www.w3.org/1999/xlink" x="0px" y="0px"
	 viewBox="0 0 75 83.8" style="enable-background:new 0 0 75 83.8;" xml:space="preserve">
<style type="text/css">
	.st0{fill:#FFFFFF;}
	.st1{fill:#5AADEB;}
</style>
<rect class="st0" width="75" height="83.8"/>
<g>
	<g>
		<path class="st1" d="M73.5,19.9c-2.7,1.2-5.5,2-8.5,2.3c3.1-1.8,5.4-4.7,6.5-8.2c-2.9,1.7-6,2.9-9.4,3.6
			c-2.7-2.9-6.5-4.7-10.8-4.7c-8.2,0-14.8,6.6-14.8,14.8c0,1.2,0.1,2.3,0.4,3.4c-12.3-0.6-23.2-6.5-30.5-15.5c-1.3,2.2-2,4.7-2,7.4
			c0,5.1,2.6,9.7,6.6,12.3c-2.4-0.1-4.7-0.7-6.7-1.9v0.2c0,7.2,5.1,13.1,11.9,14.5c-1.2,0.3-2.5,0.5-3.9,0.5c-1,0-1.9-0.1-2.8-0.3
			c1.9,5.9,7.3,10.2,13.8,10.3c-5.1,4-11.4,6.3-18.4,6.3c-1.2,0-2.4-0.1-3.5-0.2c6.5,4.2,14.3,6.7,22.7,6.7
			c27.2,0,42.1-22.5,42.1-42.1v-1.9C69.1,25.5,71.6,22.9,73.5,19.9z"/>
	</g>
</g>
</svg>
